<svg width="32" height="32" viewBox="0 0 32 32" fill="none" xmlns="http://www.w3.org/2000/svg">
  <!-- Blue gradient background with rounded corners -->
  <rect width="32" height="32" rx="6" fill="url(#faviconGradient)"/>
  
  <!-- Lucide Plane icon centered and rotated -45deg -->
  <g transform="translate(16, 16) rotate(-45) translate(-12, -12)">
    <path d="M17.8 19.2 16 11l3.5-3.5C21 6 21.5 4 21 3c-1-.5-3 0-4.5 1.5L13 8 4.8 6.2c-.5-.1-.9.1-1.1.5l-.3.5c-.2.5-.1 1 .3 1.3L9 12l-2 3H4l-1 1 3 2 2 3 1-1v-3l3-2 3.5 5.3c.3.4.8.5 1.3.3l.5-.2c.4-.3.6-.7.5-1.2z" 
          fill="none" 
          stroke="white" 
          stroke-width="2" 
          stroke-linecap="round" 
          stroke-linejoin="round"/>
  </g>
  
  <!-- Blue gradient -->
  <defs>
    <linearGradient id="faviconGradient" x1="0%" y1="0%" x2="100%" y2="100%">
      <stop offset="0%" style="stop-color:#3B82F6;stop-opacity:1" />
      <stop offset="100%" style="stop-color:#2563EB;stop-opacity:1" />
    </linearGradient>
  </defs>
</svg>
